<?xml version="1.0" encoding="utf-8"?>
<!-- Generator: Adobe Illustrator 24.1.0, SVG Export Plug-In . SVG Version: 6.00 Build 0)  -->
<svg version="1.1" id="Layer_1" xmlns="http://www.w3.org/2000/svg" xmlns:xlink="http://www.w3.org/1999/xlink" x="0px" y="0px"
	 width="555.9px" height="134.8px" viewBox="0 0 555.9 134.8" style="enable-background:new 0 0 555.9 134.8;" xml:space="preserve"
	>
<style type="text/css">
	.Drop_x0020_Shadow{fill:none;}
	.Outer_x0020_Glow_x0020_5_x0020_pt{fill:none;}
	.Blue_x0020_Neon{fill:none;stroke:#8AACDA;stroke-width:7;stroke-linecap:round;stroke-linejoin:round;}
	.Chrome_x0020_Highlight{fill:url(#SVGID_1_);stroke:#FFFFFF;stroke-width:0.3629;stroke-miterlimit:1;}
	.Jive_GS{fill:#FFDD00;}
	.Alyssa_GS{fill:#A6D0E4;}
	.st0{clip-path:url(#SVGID_3_);fill:#FFFFFF;}
	.st1{fill:#FFFFFF;}
	.st2{clip-path:url(#SVGID_5_);fill:#FFFFFF;}
</style>
<linearGradient id="SVGID_1_" gradientUnits="userSpaceOnUse" x1="227.9364" y1="17.4624" x2="227.9364" y2="16.4624">
	<stop  offset="0" style="stop-color:#656565"/>
	<stop  offset="0.618" style="stop-color:#1B1B1B"/>
	<stop  offset="0.6292" style="stop-color:#545454"/>
	<stop  offset="0.9831" style="stop-color:#3E3E3E"/>
</linearGradient>
<g>
	<g>
		<defs>
			<rect id="SVGID_2_" width="555.9" height="134.8"/>
		</defs>
		<clipPath id="SVGID_3_">
			<use xlink:href="#SVGID_2_"  style="overflow:visible;"/>
		</clipPath>
		<path class="st0" d="M124.8,20.8c-1.2,5.3-5.2,9.1-12.2,9.1c-9,0-13.4-6.6-13.4-14.8c0-8,4.5-15.1,13.7-15.1
			c7.4,0,11.2,4.3,12,9.2h-5.5c-0.8-2.6-2.5-4.9-6.7-4.9c-5.6,0-7.8,5.1-7.8,10.6c0,5.2,2,10.7,8,10.7c4.2,0,5.8-2.7,6.5-4.8H124.8z
			"/>
	</g>
	<path class="st1" d="M152.9,17.6c-2.3-6.7-3.7-10.6-4.4-13.1h0c-0.7,2.7-2.3,7.4-4.1,13.1H152.9z M143.2,22.1l-2.6,7.4h-5.4
		l10-29.1h6.8l10.5,29.1h-5.8l-2.7-7.4H143.2z"/>
	<path class="st1" d="M199.6,18.1c0-5.1,0.1-10.7,0.2-13.9h-0.2c-1.3,5.5-4.9,16.2-7.8,25.3h-4.7c-2.3-7.8-5.9-19.8-7.2-25.4h-0.2
		c0.2,3.4,0.4,9.6,0.4,14.5v10.8h-5V0.4h8.1c2.6,8.1,5.7,18.4,6.6,22.5h0.1c0.7-3.5,4.4-14.6,7.2-22.5h7.9v29.1h-5.3V18.1z"/>
	<path class="st1" d="M226,25.2h6.2c3.5,0,5.4-1.5,5.4-4.5c0-2.6-1.7-4.3-5.7-4.3H226V25.2z M232.1,12.1c3.4,0,4.8-1.5,4.8-3.8
		c0-2.3-1.7-3.6-4.5-3.6H226v7.4H232.1z M220.6,0.4h12.2c6.7,0,9.5,3.5,9.5,7.4c0,3.3-1.8,5.5-3.9,6.3c2,0.7,4.7,2.8,4.7,6.8
		c0,5.2-4,8.6-10,8.6h-12.6V0.4z"/>
	<polygon class="st1" points="276.3,16.6 262.2,16.6 262.2,25 277.7,25 277,29.5 256.8,29.5 256.8,0.4 276.9,0.4 276.9,4.9 
		262.2,4.9 262.2,12.1 276.3,12.1 	"/>
	<path class="st1" d="M296.3,13.1h5.6c3.8,0,5.3-1.4,5.3-4.2c0-2.6-1.7-4.1-5.1-4.1h-5.9V13.1z M296.3,17.5v12.1h-5.4V0.4h12.3
		c6.2,0,9.6,3.4,9.6,7.9c0,3.9-2.2,6-4.5,6.9c1.8,0.6,3.9,2.2,3.9,7.3v1.4c0,2,0,4.3,0.4,5.6h-5.2c-0.5-1.3-0.6-3.5-0.6-6.4v-0.5
		c0-3.5-0.9-5.1-5.8-5.1H296.3z"/>
	<path class="st1" d="M332.1,29.5l-7.6-29.1h5.8c2.6,12.1,4.5,20.1,4.9,23.3h0c1-4.8,4.2-16.2,6-23.3h5c1.6,5.9,4.9,18.4,5.7,23.1h0
		c1-5.9,4.2-18.1,5.4-23.1h5.3l-8.1,29.1H349c-1.6-6.5-4.6-17.5-5.5-21.9h0c-1,4.9-4,15.8-5.7,21.9H332.1z"/>
	<polygon class="st1" points="394.8,16.6 380.7,16.6 380.7,25 396.2,25 395.5,29.5 375.3,29.5 375.3,0.4 395.4,0.4 395.4,4.9 
		380.7,4.9 380.7,12.1 394.8,12.1 	"/>
	<polygon class="st1" points="409.4,0.4 414.9,0.4 414.9,25 429.6,25 428.9,29.5 409.4,29.5 	"/>
	<polygon class="st1" points="441.9,0.4 447.4,0.4 447.4,25 462.1,25 461.5,29.5 441.9,29.5 	"/>
	<path class="st1" d="M26.8,114.6c12.4,0,22.5-10,22.5-22.5c0-12.4-10-22.5-22.5-22.5h-8.1v44.9H26.8z M0,51.6h28.5
		C50.8,51.6,69,69.8,69,92.1c0,22.5-18.2,40.5-40.5,40.5H0V51.6z"/>
	<path class="st1" d="M111.8,86.3c4.7,0,8.4-3.8,8.4-8.4c0-4.6-3.7-8.4-8.4-8.4H98.2v16.8H111.8z M79.4,51.6h33.2
		c14.6,0,26.5,11.8,26.5,26.4c0,9.2-5.1,17.3-12.3,21.4l23.4,33.3h-22.5l-20.6-29.4h-8.9v29.4H79.4V51.6z"/>
	<path class="st1" d="M199,107.6l-9-21.1l-9,21.1H199z M188.7,49.6h2.5l38.7,83.1h-21.1L205,123H175l-3.9,9.7H150L188.7,49.6z"/>
	<path class="st1" d="M228.2,92.1c0-23.2,18.8-41.7,41.7-41.7c14.9,0,28.7,7.9,36.2,20.9L289,80.6c-3.8-6.6-10.6-11.5-19.1-11.5
		c-12.4,0-22,10.4-22,23c0,13.1,9.6,23.7,22,23.7c10.5,0,18.8-6.1,20.9-15.1h-20.9V87.3h40.9v5c-0.1,23-17.9,41.7-40.9,41.7
		C247,133.9,228.2,115.3,228.2,92.1"/>
	<g>
		<defs>
			<rect id="SVGID_4_" width="555.9" height="134.8"/>
		</defs>
		<clipPath id="SVGID_5_">
			<use xlink:href="#SVGID_4_"  style="overflow:visible;"/>
		</clipPath>
		<path class="st2" d="M383,92.1c0-12.7-9.9-23-22.1-23c-12.1,0-22,10.4-22,23c0,12.8,9.9,23,22,23C373.1,115.1,383,104.9,383,92.1
			 M319.2,92.1c0-23,18.7-41.7,41.7-41.7c23,0,41.7,18.7,41.7,41.7c0,23-18.7,41.8-41.7,41.8C337.9,133.9,319.2,115.1,319.2,92.1"/>
		<polygon class="st2" points="430.5,89.8 430.5,132.6 412.1,132.6 412.1,49.7 413.7,49.7 462.3,95.2 462.3,51.5 480.8,51.5 
			480.8,134.8 479.1,134.8 		"/>
	</g>
	<path class="st1" d="M490.1,117.8l12.2-11.5c4.4,5.6,13.8,10.8,21.3,10.8c6.6,0,12.3-2.3,12.3-7.1c0-3.7-4-5.6-9.7-7.4L510,97.5
		c-9.8-3.2-17.7-10.6-17.7-22c0-15.7,15.9-24.9,30.6-24.9c11.6,0,22.8,3.5,30.1,12.8l-13.4,11.1c-3.9-4.7-10.5-7.3-16.5-7.3
		c-3.9,0-11.1,1.8-11.1,7.4c0,4.1,4.3,5.6,8.2,6.9l17.3,5.3c11.8,3.8,18.4,11.2,18.4,20.9c0,14.2-13.6,26.1-33.1,26.1
		C510.3,133.8,497,128.4,490.1,117.8"/>
</g>
</svg>
