<?xml version="1.0" encoding="utf-8"?>
<!-- Generator: Adobe Illustrator 24.1.0, SVG Export Plug-In . SVG Version: 6.00 Build 0)  -->
<svg version="1.1" id="Layer_1" xmlns="http://www.w3.org/2000/svg" xmlns:xlink="http://www.w3.org/1999/xlink" x="0px" y="0px"
	 width="137px" height="115.3px" viewBox="0 0 137 115.3" style="enable-background:new 0 0 137 115.3;" xml:space="preserve">
<style type="text/css">
	.Drop_x0020_Shadow{fill:none;}
	.Outer_x0020_Glow_x0020_5_x0020_pt{fill:none;}
	.Blue_x0020_Neon{fill:none;stroke:#8AACDA;stroke-width:7;stroke-linecap:round;stroke-linejoin:round;}
	.Chrome_x0020_Highlight{fill:url(#SVGID_1_);stroke:#FFFFFF;stroke-width:0.3629;stroke-miterlimit:1;}
	.Jive_GS{fill:#FFDD00;}
	.Alyssa_GS{fill:#A6D0E4;}
	.st0{fill:#ac0931;}
</style>
<linearGradient id="SVGID_1_" gradientUnits="userSpaceOnUse" x1="18.4623" y1="7.6988" x2="18.4623" y2="6.6988">
	<stop  offset="0" style="stop-color:#656565"/>
	<stop  offset="0.618" style="stop-color:#1B1B1B"/>
	<stop  offset="0.6292" style="stop-color:#545454"/>
	<stop  offset="0.9831" style="stop-color:#3E3E3E"/>
</linearGradient>
<g>
	<polygon class="st0" points="111.6,44 106.1,31.4 55.5,5.8 94.9,33.7 	"/>
	<path class="st0" d="M96.9,63.6L96,59.2l11.6,7.3L96.9,63.6z M133.9,80.4V72h-6l-6.7-10l0-8.1L79.9,28.4l7.7,11.3l17.7,13.4L0,0
		l80,50l3.5,10l-4.1-1.1L77,51.6l-15.3-9.2l10.6,10.8l1.1,4.2l-25.4-6.8l43,21.8h23.1l17.1,14.2h5.7L133.9,80.4z"/>
	<polygon class="st0" points="18.2,39 95,77.5 114.2,77.4 129.9,89.9 136.5,89.9 133.2,100.5 122.1,91.3 118,92.4 110.9,86.5 
		100.5,86.3 	"/>
	<polygon class="st0" points="59,70.3 110.4,98.4 121.4,95.1 131.8,103.9 127.5,115.3 112.2,105.9 94.9,104.5 91.2,93.8 	"/>
</g>
</svg>
