<?xml version="1.0" encoding="utf-8"?>
<!-- Generator: Adobe Illustrator 24.1.0, SVG Export Plug-In . SVG Version: 6.00 Build 0)  -->
<svg version="1.1" id="Layer_1" xmlns="http://www.w3.org/2000/svg" xmlns:xlink="http://www.w3.org/1999/xlink" x="0px" y="0px"
	 width="23.3px" height="25.4px" viewBox="0 0 23.3 25.4" style="enable-background:new 0 0 23.3 25.4;" xml:space="preserve">
<style type="text/css">
	.Drop_x0020_Shadow{fill:none;}
	.Outer_x0020_Glow_x0020_5_x0020_pt{fill:none;}
	.Blue_x0020_Neon{fill:none;stroke:#8AACDA;stroke-width:7;stroke-linecap:round;stroke-linejoin:round;}
	.Chrome_x0020_Highlight{fill:url(#SVGID_1_);stroke:#FFFFFF;stroke-width:0.3629;stroke-miterlimit:1;}
	.Jive_GS{fill:#FFDD00;}
	.Alyssa_GS{fill:#A6D0E4;}
	.st0{fill:#FFFFFF;}
</style>
<linearGradient id="SVGID_1_" gradientUnits="userSpaceOnUse" x1="-38.4022" y1="-37.256" x2="-38.4022" y2="-38.256">
	<stop  offset="0" style="stop-color:#656565"/>
	<stop  offset="0.618" style="stop-color:#1B1B1B"/>
	<stop  offset="0.6292" style="stop-color:#545454"/>
	<stop  offset="0.9831" style="stop-color:#3E3E3E"/>
</linearGradient>
<g>
	<g>
		<path class="st0" d="M11.6,0C8.5,0,8.1,0,6.8,0.1C5.6,0.1,4.8,0.4,4,0.7C3.3,1,2.6,1.4,2,2.1C1.3,2.8,0.9,3.6,0.6,4.4
			C0.3,5.2,0.1,6.1,0.1,7.5C0,8.8,0,9.3,0,12.7c0,3.4,0,3.9,0.1,5.2c0.1,1.3,0.3,2.3,0.5,3.1c0.3,0.8,0.7,1.5,1.4,2.3
			C2.6,24,3.3,24.4,4,24.7c0.7,0.3,1.6,0.5,2.8,0.6c1.2,0.1,1.6,0.1,4.8,0.1c3.2,0,3.6,0,4.8-0.1c1.2-0.1,2.1-0.3,2.8-0.6
			c0.8-0.3,1.4-0.8,2.1-1.5c0.7-0.7,1-1.4,1.3-2.3c0.3-0.8,0.5-1.7,0.5-3.1c0.1-1.4,0.1-1.8,0.1-5.2c0-3.5,0-3.9-0.1-5.2
			c-0.1-1.4-0.3-2.3-0.5-3.1c-0.3-0.8-0.7-1.5-1.3-2.3C20.7,1.4,20,1,19.3,0.7c-0.7-0.3-1.6-0.5-2.8-0.6S14.8,0,11.6,0 M11.6,2.3
			c3.1,0,3.5,0,4.7,0.1c1.1,0.1,1.8,0.3,2.2,0.4C19,3,19.4,3.3,19.8,3.8c0.4,0.5,0.7,0.9,0.9,1.5c0.2,0.4,0.3,1.1,0.4,2.4
			c0.1,1.3,0.1,1.7,0.1,5.1c0,3.4,0,3.8-0.1,5.1c-0.1,1.2-0.2,1.9-0.4,2.4c-0.2,0.6-0.5,1-0.9,1.5c-0.4,0.4-0.8,0.7-1.3,0.9
			c-0.4,0.2-1,0.4-2.2,0.4c-1.2,0.1-1.6,0.1-4.7,0.1c-3.1,0-3.5,0-4.7-0.1c-1.1-0.1-1.8-0.3-2.2-0.4c-0.5-0.2-0.9-0.5-1.3-0.9
			c-0.4-0.4-0.7-0.9-0.9-1.5c-0.2-0.5-0.3-1.1-0.4-2.4c-0.1-1.3-0.1-1.7-0.1-5.1c0-3.4,0-3.8,0.1-5.1c0.1-1.2,0.2-1.9,0.4-2.4
			c0.2-0.6,0.5-1,0.9-1.5C3.9,3.3,4.2,3,4.8,2.8c0.4-0.2,1-0.4,2.2-0.4C8.2,2.3,8.5,2.3,11.6,2.3"/>
		<path class="st0" d="M11.6,16.9c-2.1,0-3.9-1.9-3.9-4.2c0-2.3,1.7-4.2,3.9-4.2c2.1,0,3.9,1.9,3.9,4.2C15.5,15,13.8,16.9,11.6,16.9
			 M11.6,6.2c-3.3,0-6,2.9-6,6.5c0,3.6,2.7,6.5,6,6.5c3.3,0,6-2.9,6-6.5C17.6,9.1,14.9,6.2,11.6,6.2"/>
	</g>
	<path class="st0" d="M19.2,5.9c0,0.8-0.6,1.5-1.4,1.5c-0.8,0-1.4-0.7-1.4-1.5c0-0.8,0.6-1.5,1.4-1.5C18.6,4.4,19.2,5.1,19.2,5.9"/>
</g>
</svg>
