<?xml version="1.0" encoding="utf-8"?>
<!-- Generator: Adobe Illustrator 24.1.0, SVG Export Plug-In . SVG Version: 6.00 Build 0)  -->
<svg version="1.1" id="Layer_1" xmlns="http://www.w3.org/2000/svg" xmlns:xlink="http://www.w3.org/1999/xlink" x="0px" y="0px"
	 width="18.9px" height="21.2px" viewBox="0 0 18.9 21.2" style="enable-background:new 0 0 18.9 21.2;" xml:space="preserve">
<style type="text/css">
	.Drop_x0020_Shadow{fill:none;}
	.Outer_x0020_Glow_x0020_5_x0020_pt{fill:none;}
	.Blue_x0020_Neon{fill:none;stroke:#8AACDA;stroke-width:7;stroke-linecap:round;stroke-linejoin:round;}
	.Chrome_x0020_Highlight{fill:url(#SVGID_1_);stroke:#FFFFFF;stroke-width:0.3629;stroke-miterlimit:1;}
	.Jive_GS{fill:#FFDD00;}
	.Alyssa_GS{fill:#A6D0E4;}
	.st0{fill:#FFFFFF;}
</style>
<linearGradient id="SVGID_1_" gradientUnits="userSpaceOnUse" x1="-673.1579" y1="-373.5859" x2="-673.1579" y2="-374.5859">
	<stop  offset="0" style="stop-color:#656565"/>
	<stop  offset="0.618" style="stop-color:#1B1B1B"/>
	<stop  offset="0.6292" style="stop-color:#545454"/>
	<stop  offset="0.9831" style="stop-color:#3E3E3E"/>
</linearGradient>
<path class="st0" d="M7.5,14v1c4.1,0,7.5-3.4,7.5-7.5C15,3.4,11.6,0,7.5,0C3.3,0,0,3.4,0,7.5C0,11.6,3.3,15,7.5,15V14v-1
	c-1.5,0-2.9-0.6-3.9-1.6C2.6,10.4,2,9,2,7.5C2,6,2.6,4.6,3.6,3.6C4.6,2.6,6,2,7.5,2c1.5,0,2.9,0.6,3.9,1.6c1,1,1.6,2.4,1.6,3.9
	c0,1.5-0.6,2.9-1.6,3.9c-1,1-2.4,1.6-3.9,1.6V14L7.5,14z"/>
<polyline class="st0" points="10,13.7 17.5,21.2 18.9,19.8 11.4,12.3 "/>
</svg>
