<?xml version="1.0" encoding="utf-8"?>
<!-- Generator: Adobe Illustrator 24.1.0, SVG Export Plug-In . SVG Version: 6.00 Build 0)  -->
<svg version="1.1" id="Layer_1" xmlns="http://www.w3.org/2000/svg" xmlns:xlink="http://www.w3.org/1999/xlink" x="0px" y="0px"
	 width="15.4px" height="23.6px" viewBox="0 0 15.4 23.6" style="enable-background:new 0 0 15.4 23.6;" xml:space="preserve">
<style type="text/css">
	.Drop_x0020_Shadow{fill:none;}
	.Outer_x0020_Glow_x0020_5_x0020_pt{fill:none;}
	.Blue_x0020_Neon{fill:none;stroke:#8AACDA;stroke-width:7;stroke-linecap:round;stroke-linejoin:round;}
	.Chrome_x0020_Highlight{fill:url(#SVGID_1_);stroke:#FFFFFF;stroke-width:0.3629;stroke-miterlimit:1;}
	.Jive_GS{fill:#FFDD00;}
	.Alyssa_GS{fill:#A6D0E4;}
	.st0{fill:#FFFFFF;}
</style>
<linearGradient id="SVGID_1_" gradientUnits="userSpaceOnUse" x1="-42.3372" y1="-38.1411" x2="-42.3372" y2="-39.1411">
	<stop  offset="0" style="stop-color:#656565"/>
	<stop  offset="0.618" style="stop-color:#1B1B1B"/>
	<stop  offset="0.6292" style="stop-color:#545454"/>
	<stop  offset="0.9831" style="stop-color:#3E3E3E"/>
</linearGradient>
<g>
	<polygon class="st0" points="11.4,5.6 7.6,1.1 3.8,5.6 3.3,5.1 7.6,0 11.9,5.1 11.4,5.6 	"/>
	<polygon class="st0" points="4.7,8.2 0,8.2 0,23.6 15.4,23.6 15.4,8.2 10.7,8.2 10.7,8.9 10.7,8.9 14.7,8.9 14.7,22.9 0.7,22.9 
		0.7,8.9 4.7,8.9 4.7,8.2 4.7,8.2 	"/>
	<polyline class="st0" points="7.9,16.4 7.9,5.2 7.2,5.2 7.2,16.4 	"/>
</g>
</svg>
