<?xml version="1.0" encoding="utf-8"?>
<!-- Generator: Adobe Illustrator 24.1.0, SVG Export Plug-In . SVG Version: 6.00 Build 0)  -->
<svg version="1.1" id="Layer_1" xmlns="http://www.w3.org/2000/svg" xmlns:xlink="http://www.w3.org/1999/xlink" x="0px" y="0px"
	 width="25.2px" height="18.3px" viewBox="0 0 25.2 18.3" style="enable-background:new 0 0 25.2 18.3;" xml:space="preserve">
<style type="text/css">
	.Drop_x0020_Shadow{fill:none;}
	.Outer_x0020_Glow_x0020_5_x0020_pt{fill:none;}
	.Blue_x0020_Neon{fill:none;stroke:#8AACDA;stroke-width:7;stroke-linecap:round;stroke-linejoin:round;}
	.Chrome_x0020_Highlight{fill:url(#SVGID_1_);stroke:#FFFFFF;stroke-width:0.3629;stroke-miterlimit:1;}
	.Jive_GS{fill:#FFDD00;}
	.Alyssa_GS{fill:#A6D0E4;}
	.st0{fill:#FFFFFF;}
</style>
<linearGradient id="SVGID_1_" gradientUnits="userSpaceOnUse" x1="-37.4471" y1="-40.7812" x2="-37.4471" y2="-41.7812">
	<stop  offset="0" style="stop-color:#656565"/>
	<stop  offset="0.618" style="stop-color:#1B1B1B"/>
	<stop  offset="0.6292" style="stop-color:#545454"/>
	<stop  offset="0.9831" style="stop-color:#3E3E3E"/>
</linearGradient>
<path class="st0" d="M10,13.1V5.3l6.6,3.9L10,13.1L10,13.1z M24.7,2.9c-0.3-1.1-1.1-2-2.2-2.3C20.5,0,12.6,0,12.6,0S4.7,0,2.8,0.6
	C1.7,0.8,0.8,1.7,0.5,2.9C0,4.9,0,9.2,0,9.2s0,4.3,0.5,6.3c0.3,1.1,1.1,2,2.2,2.3c2,0.5,9.8,0.5,9.8,0.5s7.9,0,9.8-0.5
	c1.1-0.3,1.9-1.2,2.2-2.3c0.5-2,0.5-6.3,0.5-6.3S25.2,4.9,24.7,2.9"/>
</svg>
