<?xml version="1.0" encoding="utf-8"?>
<!-- Generator: Adobe Illustrator 24.1.0, SVG Export Plug-In . SVG Version: 6.00 Build 0)  -->
<svg version="1.1" id="Layer_1" xmlns="http://www.w3.org/2000/svg" xmlns:xlink="http://www.w3.org/1999/xlink" x="0px" y="0px"
	 width="23.3px" height="24.1px" viewBox="0 0 23.3 24.1" style="enable-background:new 0 0 23.3 24.1;" xml:space="preserve">
<style type="text/css">
	.Drop_x0020_Shadow{fill:none;}
	.Outer_x0020_Glow_x0020_5_x0020_pt{fill:none;}
	.Blue_x0020_Neon{fill:none;stroke:#8AACDA;stroke-width:7;stroke-linecap:round;stroke-linejoin:round;}
	.Chrome_x0020_Highlight{fill:url(#SVGID_1_);stroke:#FFFFFF;stroke-width:0.3629;stroke-miterlimit:1;}
	.Jive_GS{fill:#FFDD00;}
	.Alyssa_GS{fill:#A6D0E4;}
	.st0{fill:#FFFFFF;}
</style>
<linearGradient id="SVGID_1_" gradientUnits="userSpaceOnUse" x1="-38.4023" y1="-37.9262" x2="-38.4023" y2="-38.9262">
	<stop  offset="0" style="stop-color:#656565"/>
	<stop  offset="0.618" style="stop-color:#1B1B1B"/>
	<stop  offset="0.6292" style="stop-color:#545454"/>
	<stop  offset="0.9831" style="stop-color:#3E3E3E"/>
</linearGradient>
<path class="st0" d="M22,0H1.3C0.6,0,0,0.6,0,1.3v21.4c0,0.7,0.6,1.3,1.3,1.3h11.2v-9.3h-3v-3.6h3V8.4c0-3.1,1.8-4.8,4.5-4.8
	c1.3,0,2.4,0.1,2.7,0.1V7h-1.9C16.3,7,16,7.7,16,8.8v2.3h3.5l-0.4,3.6h-3v9.3H22c0.7,0,1.3-0.6,1.3-1.3V1.3C23.3,0.6,22.7,0,22,0"/>
</svg>
