<?xml version="1.0" encoding="utf-8"?>
<!-- Generator: Adobe Illustrator 24.1.0, SVG Export Plug-In . SVG Version: 6.00 Build 0)  -->
<svg version="1.1" id="Layer_1" xmlns="http://www.w3.org/2000/svg" xmlns:xlink="http://www.w3.org/1999/xlink" x="0px" y="0px"
	 width="299.9px" height="117.5px" viewBox="0 0 299.9 117.5" style="enable-background:new 0 0 299.9 117.5;" xml:space="preserve"
	>
<style type="text/css">
	.Drop_x0020_Shadow{fill:none;}
	.Outer_x0020_Glow_x0020_5_x0020_pt{fill:none;}
	.Blue_x0020_Neon{fill:none;stroke:#8AACDA;stroke-width:7;stroke-linecap:round;stroke-linejoin:round;}
	.Chrome_x0020_Highlight{fill:url(#SVGID_1_);stroke:#FFFFFF;stroke-width:0.3629;stroke-miterlimit:1;}
	.Jive_GS{fill:#FFDD00;}
	.Alyssa_GS{fill:#A6D0E4;}
	.st0{fill:#AE0931;}
	.st1{fill:#FFFFFF;}
</style>
<linearGradient id="SVGID_1_" gradientUnits="userSpaceOnUse" x1="99.8923" y1="8.8188" x2="99.8923" y2="7.8188">
	<stop  offset="0" style="stop-color:#656565"/>
	<stop  offset="0.618" style="stop-color:#1B1B1B"/>
	<stop  offset="0.6292" style="stop-color:#545454"/>
	<stop  offset="0.9831" style="stop-color:#3E3E3E"/>
</linearGradient>
<g>
	<polygon class="st0" points="113.7,44.8 108.2,32.1 56.5,5.9 96.7,34.3 	"/>
	<path class="st0" d="M98.8,64.8l-0.9-4.5l11.9,7.4L98.8,64.8z M136.5,82v-8.5h-6.1l-6.9-10.2l0-8.2L81.4,28.9l7.9,11.6l18,13.7L0,0
		l81.5,51l3.6,10.2l-4.2-1.1l-2.4-7.5l-15.6-9.4l10.9,11l1.1,4.3L49,51.6l43.9,22.2h23.5l17.4,14.5h5.9L136.5,82z"/>
	<polygon class="st0" points="18.6,39.7 96.8,79 116.4,78.9 132.4,91.6 139.2,91.6 135.8,102.5 124.5,93.1 120.3,94.2 113,88.2 
		102.4,88 	"/>
	<polygon class="st0" points="60.1,71.6 112.6,100.3 123.7,97 134.4,105.9 130,117.5 114.4,108 96.7,106.5 93,95.7 	"/>
	<path class="st1" d="M166.1,60.3c-0.3,1.3-1.3,2.3-3.1,2.3c-2.3,0-3.4-1.7-3.4-3.8c0-2,1.1-3.9,3.4-3.9c1.9,0,2.8,1.1,3,2.4h-1.4
		c-0.2-0.7-0.6-1.2-1.7-1.2c-1.4,0-2,1.3-2,2.7c0,1.3,0.5,2.7,2,2.7c1.1,0,1.5-0.7,1.6-1.2H166.1L166.1,60.3z"/>
	<path class="st1" d="M170.8,60.7l-0.6,1.9h-1.4l2.5-7.5h1.7l2.6,7.5h-1.5l-0.7-1.9H170.8L170.8,60.7z M173.2,59.5
		c-0.6-1.7-0.9-2.7-1.1-3.4h0c-0.2,0.7-0.6,1.9-1,3.4H173.2L173.2,59.5z"/>
	<path class="st1" d="M185,59.7c0-1.3,0-2.7,0-3.6h0c-0.3,1.4-1.2,4.1-2,6.5h-1.2c-0.6-2-1.5-5.1-1.8-6.5h0c0.1,0.9,0.1,2.4,0.1,3.7
		v2.8h-1.3v-7.5h2c0.7,2.1,1.4,4.7,1.7,5.8h0c0.2-0.9,1.1-3.7,1.8-5.8h2v7.5H185V59.7L185,59.7z"/>
	<path class="st1" d="M190.3,55.1h3.1c1.7,0,2.4,0.9,2.4,1.9c0,0.9-0.5,1.4-1,1.6c0.5,0.2,1.2,0.7,1.2,1.7c0,1.3-1,2.2-2.5,2.2h-3.2
		V55.1L190.3,55.1z M193.2,58.1c0.9,0,1.2-0.4,1.2-1c0-0.6-0.4-0.9-1.1-0.9h-1.6v1.9H193.2L193.2,58.1z M191.7,61.5h1.6
		c0.9,0,1.4-0.4,1.4-1.2c0-0.7-0.4-1.1-1.4-1.1h-1.5V61.5L191.7,61.5z"/>
	<polygon class="st1" points="204.3,59.3 200.8,59.3 200.8,61.4 204.7,61.4 204.5,62.6 199.4,62.6 199.4,55.1 204.5,55.1 
		204.5,56.3 200.8,56.3 200.8,58.1 204.3,58.1 204.3,59.3 	"/>
	<path class="st1" d="M209.4,59.5v3.1H208v-7.5h3.1c1.6,0,2.4,0.9,2.4,2c0,1-0.5,1.5-1.1,1.8c0.4,0.1,1,0.6,1,1.9v0.4
		c0,0.5,0,1.1,0.1,1.4h-1.3c-0.1-0.3-0.1-0.9-0.1-1.7v-0.1c0-0.9-0.2-1.3-1.5-1.3H209.4L209.4,59.5z M209.4,58.4h1.4
		c1,0,1.3-0.4,1.3-1.1c0-0.7-0.4-1-1.3-1h-1.5V58.4L209.4,58.4z"/>
	<path class="st1" d="M218.4,62.6l-1.9-7.5h1.5c0.6,3.1,1.1,5.2,1.2,6h0c0.3-1.2,1.1-4.1,1.5-6h1.3c0.4,1.5,1.2,4.7,1.4,5.9h0
		c0.2-1.5,1.1-4.6,1.4-5.9h1.3l-2,7.5h-1.4c-0.4-1.7-1.2-4.5-1.4-5.6h0c-0.3,1.3-1,4.1-1.4,5.6H218.4L218.4,62.6z"/>
	<polygon class="st1" points="234.2,59.3 230.7,59.3 230.7,61.4 234.6,61.4 234.4,62.6 229.3,62.6 229.3,55.1 234.4,55.1 
		234.4,56.3 230.7,56.3 230.7,58.1 234.2,58.1 234.2,59.3 	"/>
	<polygon class="st1" points="237.9,55.1 239.3,55.1 239.3,61.4 243,61.4 242.8,62.6 237.9,62.6 237.9,55.1 	"/>
	<polygon class="st1" points="246.1,55.1 247.5,55.1 247.5,61.4 251.2,61.4 251,62.6 246.1,62.6 246.1,55.1 	"/>
	<path class="st1" d="M159.7,68.2h7.2c5.6,0,10.2,4.7,10.2,10.4c0,5.8-4.6,10.4-10.2,10.4h-7.2V68.2L159.7,68.2z M166.4,84.4
		c3.1,0,5.7-2.6,5.7-5.8c0-3.2-2.5-5.8-5.7-5.8h-2v11.5H166.4L166.4,84.4z"/>
	<path class="st1" d="M179.7,68.2h8.4c3.7,0,6.7,3,6.7,6.8c0,2.4-1.3,4.4-3.1,5.5l5.9,8.5h-5.7l-5.2-7.5h-2.2V89h-4.7V68.2
		L179.7,68.2z M187.8,77.2c1.2,0,2.1-1,2.1-2.2c0-1.2-0.9-2.2-2.1-2.2h-3.4v4.3H187.8L187.8,77.2z"/>
	<path class="st1" d="M207.3,67.7h0.6l9.8,21.3h-5.3l-1-2.5h-7.6l-1,2.5h-5.3L207.3,67.7L207.3,67.7z M209.8,82.6l-2.3-5.4l-2.3,5.4
		H209.8L209.8,82.6z"/>
	<path class="st1" d="M217.2,78.6c0-5.9,4.7-10.7,10.5-10.7c3.7,0,7.2,2,9.1,5.3l-4.3,2.4c-1-1.7-2.7-3-4.8-3
		c-3.1,0-5.5,2.7-5.5,5.9c0,3.4,2.4,6.1,5.5,6.1c2.6,0,4.7-1.6,5.3-3.9h-5.3v-3.5H238v1.3c0,5.9-4.5,10.7-10.3,10.7
		C221.9,89.4,217.2,84.6,217.2,78.6L217.2,78.6z"/>
	<path class="st1" d="M240.2,78.6c0-5.9,4.7-10.7,10.5-10.7c5.8,0,10.5,4.8,10.5,10.7s-4.7,10.7-10.5,10.7
		C244.9,89.4,240.2,84.5,240.2,78.6L240.2,78.6z M256.3,78.6c0-3.2-2.5-5.9-5.6-5.9c-3.1,0-5.5,2.7-5.5,5.9c0,3.3,2.5,5.9,5.5,5.9
		C253.8,84.5,256.3,81.9,256.3,78.6L256.3,78.6z"/>
	<polygon class="st1" points="268.2,78 268.2,89 263.6,89 263.6,67.8 264,67.8 276.2,79.4 276.2,68.2 280.9,68.2 280.9,89.6 
		280.5,89.6 268.2,78 	"/>
	<path class="st1" d="M283.2,85.2l3.1-3c1.1,1.4,3.5,2.8,5.4,2.8c1.7,0,3.1-0.6,3.1-1.8c0-0.9-1-1.4-2.4-1.9l-4.1-1.3
		c-2.5-0.8-4.5-2.7-4.5-5.6c0-4,4-6.4,7.7-6.4c2.9,0,5.8,0.9,7.6,3.3l-3.4,2.8c-1-1.2-2.6-1.9-4.2-1.9c-1,0-2.8,0.5-2.8,1.9
		c0,1.1,1.1,1.4,2.1,1.8l4.4,1.4c3,1,4.6,2.9,4.6,5.3c0,3.6-3.4,6.7-8.3,6.7C288.4,89.3,285,87.9,283.2,85.2L283.2,85.2z"/>
</g>
</svg>
