<?xml version="1.0" encoding="utf-8"?>
<!-- Generator: Adobe Illustrator 24.1.0, SVG Export Plug-In . SVG Version: 6.00 Build 0)  -->
<svg version="1.1" id="Layer_1" xmlns="http://www.w3.org/2000/svg" xmlns:xlink="http://www.w3.org/1999/xlink" x="0px" y="0px"
	 width="21.5px" height="18px" viewBox="0 0 21.5 18" style="enable-background:new 0 0 21.5 18;" xml:space="preserve">
<style type="text/css">
	.Drop_x0020_Shadow{fill:none;}
	.Outer_x0020_Glow_x0020_5_x0020_pt{fill:none;}
	.Blue_x0020_Neon{fill:none;stroke:#8AACDA;stroke-width:7;stroke-linecap:round;stroke-linejoin:round;}
	.Chrome_x0020_Highlight{fill:url(#SVGID_1_);stroke:#FFFFFF;stroke-width:0.3629;stroke-miterlimit:1;}
	.Jive_GS{fill:#FFDD00;}
	.Alyssa_GS{fill:#A6D0E4;}
	.st0{fill:#FFFFFF;}
</style>
<linearGradient id="SVGID_1_" gradientUnits="userSpaceOnUse" x1="-39.3071" y1="-40.946" x2="-39.3071" y2="-41.946">
	<stop  offset="0" style="stop-color:#656565"/>
	<stop  offset="0.618" style="stop-color:#1B1B1B"/>
	<stop  offset="0.6292" style="stop-color:#545454"/>
	<stop  offset="0.9831" style="stop-color:#3E3E3E"/>
</linearGradient>
<path class="st0" d="M6.8,18c8.1,0,12.5-6.9,12.5-13c0-0.2,0-0.4,0-0.6c0.9-0.6,1.6-1.4,2.2-2.4c-0.8,0.4-1.6,0.6-2.5,0.7
	c0.9-0.6,1.6-1.5,1.9-2.5c-0.9,0.5-1.8,0.9-2.8,1.1C17.3,0.6,16.1,0,14.9,0c-2.4,0-4.4,2-4.4,4.6c0,0.3,0,0.7,0.1,1
	c-3.7-0.2-6.9-2-9.1-4.7C1.1,1.5,0.9,2.3,0.9,3.1c0,1.6,0.8,3,2,3.8c-0.7,0-1.4-0.2-2-0.6v0c0,2.2,1.5,4.1,3.5,4.5
	C4,11,3.6,11,3.2,11c-0.3,0-0.6,0-0.8-0.1c0.6,1.8,2.2,3.1,4.1,3.2c-1.5,1.2-3.4,2-5.5,2C0.7,16,0.4,16,0,16C2,17.3,4.3,18,6.8,18"
	/>
</svg>
